<?xml version="1.0" encoding="UTF-8" standalone="no"?>
<!-- Created with Inkscape (http://www.inkscape.org/) -->

<svg
   width="15cm"
   height="15cm"
   viewBox="0 0 150 150"
   version="1.1"
   id="svg5"
   inkscape:version="1.3 (0e150ed6c4, 2023-07-21)"
   sodipodi:docname="fabrication process of active membranes.svg"
   xmlns:inkscape="http://www.inkscape.org/namespaces/inkscape"
   xmlns:sodipodi="http://sodipodi.sourceforge.net/DTD/sodipodi-0.dtd"
   xmlns:xlink="http://www.w3.org/1999/xlink"
   xmlns="http://www.w3.org/2000/svg"
   xmlns:svg="http://www.w3.org/2000/svg">
  <sodipodi:namedview
     id="namedview7"
     pagecolor="#ffffff"
     bordercolor="#000000"
     borderopacity="0.25"
     inkscape:showpageshadow="2"
     inkscape:pageopacity="0.0"
     inkscape:pagecheckerboard="0"
     inkscape:deskcolor="#d1d1d1"
     inkscape:document-units="mm"
     showgrid="false"
     showguides="true"
     inkscape:zoom="4"
     inkscape:cx="217.75"
     inkscape:cy="279.375"
     inkscape:window-width="1920"
     inkscape:window-height="1129"
     inkscape:window-x="1912"
     inkscape:window-y="-8"
     inkscape:window-maximized="1"
     inkscape:current-layer="layer1"
     inkscape:export-bgcolor="#ffffffff">
    <inkscape:grid
       type="xygrid"
       id="grid811"
       empspacing="5"
       units="mm"
       originx="0"
       originy="0"
       spacingx="0.05"
       spacingy="0.05"
       visible="false"
       snapvisiblegridlinesonly="true" />
  </sodipodi:namedview>
  <defs
     id="defs2">
    <linearGradient
       id="linearGradient10"
       inkscape:collect="always">
      <stop
         style="stop-color:#ffffff;stop-opacity:1;"
         offset="0"
         id="stop9" />
      <stop
         style="stop-color:#a58adb;stop-opacity:1;"
         offset="1"
         id="stop10" />
    </linearGradient>
    <marker
       style="overflow:visible"
       id="Dot"
       refX="0"
       refY="0"
       orient="auto"
       inkscape:stockid="Dot"
       markerWidth="0.75"
       markerHeight="0.75"
       viewBox="0 0 1 1"
       inkscape:isstock="true"
       inkscape:collect="always"
       preserveAspectRatio="xMidYMid">
      <path
         transform="scale(0.5)"
         style="fill:context-stroke;fill-rule:evenodd;stroke:none"
         d="M 5,0 C 5,2.76 2.76,5 0,5 -2.76,5 -5,2.76 -5,0 c 0,-2.76 2.3,-5 5,-5 2.76,0 5,2.24 5,5 z"
         sodipodi:nodetypes="sssss"
         id="path17" />
    </marker>
    <linearGradient
       id="linearGradient2"
       inkscape:collect="always">
      <stop
         style="stop-color:#ffffff;stop-opacity:1;"
         offset="0"
         id="stop1" />
      <stop
         style="stop-color:#db8adb;stop-opacity:1;"
         offset="1"
         id="stop2" />
    </linearGradient>
    <linearGradient
       id="linearGradient478"
       inkscape:collect="always">
      <stop
         style="stop-color:#00798e;stop-opacity:1;"
         offset="0"
         id="stop478" />
      <stop
         style="stop-color:#ff0101;stop-opacity:1;"
         offset="1"
         id="stop479" />
    </linearGradient>
    <inkscape:path-effect
       effect="skeletal"
       id="path-effect478"
       is_visible="true"
       lpeversion="1"
       pattern="#path9"
       copytype="single_stretched"
       prop_scale="1"
       scale_y_rel="false"
       spacing="0"
       normal_offset="0"
       tang_offset="0"
       prop_units="false"
       vertical_pattern="false"
       hide_knot="false"
       fuse_tolerance="0" />
    <inkscape:path-effect
       effect="skeletal"
       id="path-effect477"
       is_visible="true"
       lpeversion="1"
       pattern="m 303.30709,274.01575 2.83465,-5.66929 2.83464,5.66929 z"
       copytype="single_stretched"
       prop_scale="1"
       scale_y_rel="false"
       spacing="0"
       normal_offset="0"
       tang_offset="0"
       prop_units="false"
       vertical_pattern="false"
       hide_knot="false"
       fuse_tolerance="0" />
    <linearGradient
       inkscape:collect="always"
       xlink:href="#linearGradient478"
       id="linearGradient479"
       x1="30.750214"
       y1="61.499886"
       x2="30.750214"
       y2="61.999886"
       gradientUnits="userSpaceOnUse"
       gradientTransform="translate(-0.99977837,-0.92471514)" />
    <linearGradient
       inkscape:collect="always"
       xlink:href="#linearGradient2"
       id="linearGradient484"
       gradientUnits="userSpaceOnUse"
       gradientTransform="matrix(1.0084151,0,0,1,-0.04471045,3.3148723)"
       x1="35"
       y1="65.75"
       x2="35"
       y2="69.935333" />
    <marker
       style="overflow:visible"
       id="Dot-5"
       refX="0"
       refY="0"
       orient="auto"
       inkscape:stockid="Dot"
       markerWidth="0.75"
       markerHeight="0.75"
       viewBox="0 0 1 1"
       inkscape:isstock="true"
       inkscape:collect="always"
       preserveAspectRatio="xMidYMid">
      <path
         transform="scale(0.5)"
         style="fill:context-stroke;fill-rule:evenodd;stroke:none"
         d="M 5,0 C 5,2.76 2.76,5 0,5 -2.76,5 -5,2.76 -5,0 c 0,-2.76 2.3,-5 5,-5 2.76,0 5,2.24 5,5 z"
         sodipodi:nodetypes="sssss"
         id="path17-0" />
    </marker>
    <marker
       style="overflow:visible"
       id="Dot-9"
       refX="0"
       refY="0"
       orient="auto"
       inkscape:stockid="Dot"
       markerWidth="0.75"
       markerHeight="0.75"
       viewBox="0 0 1 1"
       inkscape:isstock="true"
       inkscape:collect="always"
       preserveAspectRatio="xMidYMid">
      <path
         transform="scale(0.5)"
         style="fill:context-stroke;fill-rule:evenodd;stroke:none"
         d="M 5,0 C 5,2.76 2.76,5 0,5 -2.76,5 -5,2.76 -5,0 c 0,-2.76 2.3,-5 5,-5 2.76,0 5,2.24 5,5 z"
         sodipodi:nodetypes="sssss"
         id="path17-2" />
    </marker>
    <marker
       style="overflow:visible"
       id="Dot-0"
       refX="0"
       refY="0"
       orient="auto"
       inkscape:stockid="Dot"
       markerWidth="0.75"
       markerHeight="0.75"
       viewBox="0 0 1 1"
       inkscape:isstock="true"
       inkscape:collect="always"
       preserveAspectRatio="xMidYMid">
      <path
         transform="scale(0.5)"
         style="fill:context-stroke;fill-rule:evenodd;stroke:none"
         d="M 5,0 C 5,2.76 2.76,5 0,5 -2.76,5 -5,2.76 -5,0 c 0,-2.76 2.3,-5 5,-5 2.76,0 5,2.24 5,5 z"
         sodipodi:nodetypes="sssss"
         id="path17-3" />
    </marker>
    <marker
       style="overflow:visible"
       id="Dot-3"
       refX="0"
       refY="0"
       orient="auto"
       inkscape:stockid="Dot"
       markerWidth="0.75"
       markerHeight="0.75"
       viewBox="0 0 1 1"
       inkscape:isstock="true"
       inkscape:collect="always"
       preserveAspectRatio="xMidYMid">
      <path
         transform="scale(0.5)"
         style="fill:context-stroke;fill-rule:evenodd;stroke:none"
         d="M 5,0 C 5,2.76 2.76,5 0,5 -2.76,5 -5,2.76 -5,0 c 0,-2.76 2.3,-5 5,-5 2.76,0 5,2.24 5,5 z"
         sodipodi:nodetypes="sssss"
         id="path17-1" />
    </marker>
    <linearGradient
       inkscape:collect="always"
       xlink:href="#linearGradient10"
       id="linearGradient484-7"
       gradientUnits="userSpaceOnUse"
       gradientTransform="matrix(1.0084151,0,0,0.99999996,0.20548096,-1.9353403)"
       x1="80.1203"
       y1="72.435341"
       x2="80.1203"
       y2="76.653046" />
    <linearGradient
       inkscape:collect="always"
       xlink:href="#linearGradient478"
       id="linearGradient479-8"
       x1="30.750214"
       y1="61.499886"
       x2="30.750214"
       y2="61.999886"
       gradientUnits="userSpaceOnUse"
       gradientTransform="translate(5.706117,-5.5152306)" />
    <linearGradient
       inkscape:collect="always"
       xlink:href="#linearGradient2"
       id="linearGradient1"
       gradientUnits="userSpaceOnUse"
       gradientTransform="matrix(1.0084151,0,0,1,-0.07588656,-2.6852945)"
       x1="35"
       y1="65.75"
       x2="35"
       y2="69.935333" />
    <linearGradient
       inkscape:collect="always"
       xlink:href="#linearGradient2"
       id="linearGradient3"
       gradientUnits="userSpaceOnUse"
       gradientTransform="matrix(1.0084151,0,0,1,46.964445,-0.13080978)"
       x1="35"
       y1="65.75"
       x2="35"
       y2="69.935333" />
  </defs>
  <g
     inkscape:groupmode="layer"
     id="layer2"
     inkscape:label="Capa 2"
     style="display:none">
    <path
       style="display:inline;fill:none;fill-opacity:1;stroke:#008080;stroke-width:1;stroke-linecap:butt;stroke-linejoin:round;stroke-dasharray:none"
       d="m 27.75019,60.24979 c 0.298095,0 0,-2e-6 0.78138,-10e-7 0.71862,10e-7 0.718619,-0.999999 0.718619,-0.999999 h 12.500002 c 0,0 -0.02059,0.999998 0.739711,1.000001 h 0.760288"
       id="path479"
       sodipodi:nodetypes="csccsc" />
  </g>
  <g
     inkscape:label="Capa 1"
     inkscape:groupmode="layer"
     id="layer1"
     style="display:inline">
    <g
       id="g12"
       transform="translate(-0.29374976,0.77691349)">
      <path
         id="rect1161"
         style="fill:#165044"
         d="m 46.79375,64.22309 h 5.000001 v 0.997572 l -2.500001,4.002428 -2.5,10e-7 z m 5.000001,0 h 7 v 0.999998 h -7 z" />
      <path
         id="rect1919"
         style="fill:#ff7f2a;stroke-width:0.915812"
         d="m 52.29375,63.223091 h 7 l -0.5,1 h -6.5 z"
         sodipodi:nodetypes="ccccc" />
      <path
         id="rect1919-57"
         style="fill:#ff7f2a;stroke-width:0.915812"
         d="m 52.29375,60.823089 h 6.5 l 0.5,1.000002 -7,-2e-6 z"
         sodipodi:nodetypes="ccccc" />
      <rect
         style="fill:#ff7f2a;stroke-width:0.709384"
         id="rect1919-5"
         width="7"
         height="0.60000002"
         x="52.293751"
         y="62.223091" />
      <rect
         style="fill:#ffcc00;stroke-width:1.62018"
         id="rect1923"
         width="5.25"
         height="0.24999771"
         x="46.793751"
         y="63.973095" />
      <path
         style="fill:none;stroke:#808080;stroke-width:0.4;stroke-dasharray:none;stroke-opacity:1"
         d="m 59.29375,62.023091 h -7"
         id="path2003-4"
         sodipodi:nodetypes="cc" />
      <path
         id="rect1161-1"
         style="fill:#165044"
         d="m 72.29375,64.22309 h -5 v 0.997572 l 2.5,4.002428 2.5,10e-7 z m -5,0 h -7 v 0.999998 h 7 z" />
      <path
         id="rect1919-51"
         style="fill:#ff7f2a;stroke-width:0.915812"
         d="m 66.79375,63.223091 h -7 l 0.5,1 h 6.5 z"
         sodipodi:nodetypes="ccccc" />
      <path
         id="rect1919-57-1"
         style="fill:#ff7f2a;stroke-width:0.915812"
         d="m 66.79375,60.823089 h -6.5 l -0.5,1.000002 7,-2e-6 z"
         sodipodi:nodetypes="ccccc" />
      <rect
         style="fill:#ff7f2a;stroke-width:0.709384"
         id="rect1919-5-7"
         width="7"
         height="0.60000002"
         x="-66.793747"
         y="62.223091"
         transform="scale(-1,1)" />
      <rect
         style="fill:#ffcc00;stroke-width:1.62018"
         id="rect1923-1"
         width="5.25"
         height="0.24999771"
         x="-72.293747"
         y="63.973095"
         transform="scale(-1,1)" />
      <path
         style="fill:none;stroke:#808080;stroke-width:0.4;stroke-dasharray:none;stroke-opacity:1"
         d="m 59.79375,63.023091 h 7"
         id="path2003-4-8"
         sodipodi:nodetypes="cc" />
      <path
         style="fill:none;stroke:#808080;stroke-width:0.4;stroke-linecap:butt;stroke-dasharray:none;stroke-opacity:1"
         d="m 59.293749,63.02309 -6.999999,2e-6 c -0.521175,0 -0.415136,0.75 -0.999999,0.75 l -2.000001,-10e-7"
         id="path4835"
         sodipodi:nodetypes="ccsc" />
      <path
         style="fill:none;stroke:#808080;stroke-width:0.4;stroke-linecap:butt;stroke-dasharray:none;stroke-opacity:1"
         d="m 59.79375,62.023091 7.000001,10e-7 c 0.550003,2e-6 0.350002,1.750002 0.850003,1.750001 l 2.149996,-2e-6"
         id="path4835-3"
         sodipodi:nodetypes="ccsc" />
    </g>
    <path
       id="path9-0"
       style="display:inline;opacity:0.309859;fill:url(#linearGradient479-8);fill-opacity:1;stroke:#ffffff;stroke-width:0.1;stroke-linecap:round;stroke-dasharray:none"
       d="m 37.440958,54.149806 -0.06473,0.241592 0.216634,0.05805 0.28898,0.854243 0.676887,-0.59544 0.482684,0.129331 4.829834,1.29415 0.06473,-0.241591 z" />
    <path
       style="display:inline;fill:#008080;fill-opacity:1;stroke:#008080;stroke-width:1;stroke-linecap:butt;stroke-linejoin:round;stroke-dasharray:none;stroke-dashoffset:0;stroke-opacity:1"
       d="m 29.249811,58.000216 c 0.750001,0 1.500001,0 1.500001,-1 h 12.5 c 0,0 0,1 0.749998,1 h 0.750001"
       id="path6-3"
       sodipodi:nodetypes="cccsc" />
    <rect
       style="fill:#000080;stroke:#000080;stroke-width:0;stroke-linecap:round;stroke-dasharray:none"
       id="rect6"
       width="15.499995"
       height="1.0000005"
       x="29.250004"
       y="58" />
    <rect
       style="fill:#ff7f2a;fill-opacity:1;stroke:#000000;stroke-width:0;stroke-linecap:round;stroke-dasharray:none"
       id="rect7"
       width="12.500002"
       height="1"
       x="30.75"
       y="57" />
    <path
       id="path9"
       style="fill:url(#linearGradient479);fill-opacity:1;stroke:#ffffff;stroke-width:0.1;stroke-linecap:round;stroke-dasharray:none"
       d="m 30.526075,60.499887 v 0.250114 h 0.224276 l 0.500228,0.750342 0.499711,-0.750342 h 0.499711 5.000212 v -0.250114 z"
       transform="translate(6.705896,-4.5905146)" />
    <g
       id="g6"
       transform="translate(1.4998111,-2.4604378)">
      <rect
         style="display:inline;fill:url(#linearGradient484);fill-opacity:1;stroke:none;stroke-width:0.125671;stroke-linecap:butt;stroke-linejoin:round;stroke-dasharray:none"
         id="rect482-1"
         width="15.500002"
         height="4.1853352"
         x="27.499815"
         y="69.06488" />
      <path
         id="path482-1"
         style="color:#000000;display:inline;fill:#008080;stroke-width:0.5;stroke-linejoin:round;stroke-dasharray:none"
         d="m 29.000229,71.999874 c -0.276131,2.8e-5 -0.5002,0.224054 -0.500228,0.500128 0,0 -0.0065,0.179834 -0.06046,0.329975 -0.02698,0.07506 -0.06234,0.128348 -0.08217,0.146732 -0.01983,0.01838 -0.01227,0.02342 -0.07596,0.02342 h -0.781348 v 0.999568 h 0.781348 c 0.295618,0 0.573227,-0.119576 0.755509,-0.288641 0.182284,-0.169072 0.281317,-0.366584 0.344165,-0.541462 0.03185,-0.08864 0.0118,-0.08945 0.02894,-0.169465 h 6.546887 l -0.535884,-1.000257 z m 8.578805,0 -0.535885,1.000257 h 4.042647 c 0.01669,0.08029 -0.0046,0.08066 0.02739,0.169465 0.06393,0.177759 0.168751,0.378369 0.357601,0.546973 0.18885,0.168603 0.469782,0.283129 0.769462,0.28313 h 0.759643 v -0.999568 h -0.759643 c -0.08047,0 -0.08223,-0.01067 -0.103353,-0.02962 -0.02112,-0.01885 -0.05621,-0.06835 -0.08217,-0.140532 -0.05193,-0.144371 -0.05478,-0.32033 -0.05478,-0.32033 0.0054,-0.27988 -0.219721,-0.509798 -0.499711,-0.509773 z" />
      <path
         id="rect7-9-6"
         style="display:inline;fill:#ff7f2a;fill-opacity:1;stroke:#000000;stroke-width:0;stroke-linecap:round;stroke-dasharray:none"
         d="m 28.999995,72.250115 v 0.999939 h 7.321 l -0.714168,-0.999939 z m 8.392769,0 -0.714168,0.999939 h 4.821411 v -0.999939 z" />
      <rect
         style="display:inline;fill:#000080;stroke:#000080;stroke-width:0;stroke-linecap:round;stroke-dasharray:none"
         id="rect6-8-4"
         width="15.499995"
         height="1.0000005"
         x="27.499815"
         y="73.250214" />
    </g>
    <g
       id="g7"
       transform="translate(1.4998111,-2.4997851)">
      <rect
         style="display:inline;fill:#ff7f2a;fill-opacity:1;stroke:#000000;stroke-width:0;stroke-linecap:round;stroke-dasharray:none"
         id="rect7-9-6-1"
         width="12.500002"
         height="1"
         x="28.999809"
         y="75.999115" />
      <path
         style="display:inline;fill:#ffffff;fill-opacity:1;stroke:none;stroke-width:0.1;stroke-linecap:butt;stroke-linejoin:round;stroke-dasharray:none"
         d="m 35.249812,75.499115 1.250001,1.749999 1.25,-1.749999 z"
         id="path480-9-1" />
      <rect
         style="display:inline;fill:#000080;stroke:#000080;stroke-width:0;stroke-linecap:round;stroke-dasharray:none"
         id="rect6-8-4-7"
         width="15.499995"
         height="1.0000005"
         x="27.499815"
         y="76.999115" />
    </g>
    <g
       id="g4"
       transform="translate(1.4998111,-2.8551572)">
      <rect
         style="display:inline;fill:url(#linearGradient1);fill-opacity:1;stroke:none;stroke-width:0.125671;stroke-linecap:butt;stroke-linejoin:round;stroke-dasharray:none"
         id="rect482-1-7"
         width="15.500002"
         height="4.1853352"
         x="27.468639"
         y="63.064713" />
      <path
         id="path482-1-7"
         style="color:#000000;display:inline;fill:#008080;stroke-width:0.935362;stroke-linejoin:round;stroke-dasharray:none"
         d="m 28.968819,65.750001 c -0.276131,2.5e-5 -0.5002,0.196065 -0.500228,0.437651 0,0 -0.0065,0.157369 -0.06046,0.288753 -0.02698,0.06569 -0.06234,0.112315 -0.08217,0.128402 -0.01983,0.01609 -0.01227,0.0205 -0.07596,0.0205 h -0.781348 v 0.874699 h 0.781348 c 0.295618,0 0.573227,-0.104638 0.755509,-0.252583 0.182284,-0.147951 0.281317,-0.320789 0.344165,-0.473821 0.03185,-0.07756 0.0118,-0.07827 0.02894,-0.148295 l 6.821386,-0.02531 -0.6,-0.850001 z m 8.381182,0 -0.6,0.850001 4.304385,0.0253 c 0.01669,0.07026 -0.0046,0.07059 0.02739,0.148295 0.06393,0.155553 0.168751,0.331102 0.357601,0.478643 0.18885,0.147541 0.469782,0.24776 0.769462,0.247761 h 0.759643 v -0.874699 h -0.759643 c -0.08047,0 -0.08223,-0.0093 -0.103353,-0.02592 -0.02112,-0.0165 -0.05621,-0.05981 -0.08217,-0.122977 -0.05193,-0.126335 -0.05478,-0.280313 -0.05478,-0.280313 0.0054,-0.244916 -0.219721,-0.446113 -0.499711,-0.44609 z"
         sodipodi:nodetypes="ccsssccsssccccccccssccscsccc" />
      <path
         id="rect7-9-6-3"
         style="display:inline;fill:#ff7f2a;fill-opacity:1;stroke:#000000;stroke-width:0;stroke-linecap:round;stroke-dasharray:none"
         d="m 28.968819,66.249949 v 0.999939 l 7.431182,1.14e-4 v -0.4 0 l -0.45,-0.600001 z m 8.031182,5.2e-5 -0.45,0.600001 h -0.15 v 0.4 l 5.06883,-1.14e-4 v -0.999939 z"
         sodipodi:nodetypes="cccccccccccccc" />
      <rect
         style="display:inline;fill:#000080;stroke:#000080;stroke-width:0;stroke-linecap:round;stroke-dasharray:none"
         id="rect6-8-4-9"
         width="15.499995"
         height="1.0000005"
         x="27.468639"
         y="67.250046" />
    </g>
  </g>
  <g
     inkscape:groupmode="layer"
     id="layer3"
     inkscape:label="Capa 3"
     style="display:none">
    <path
       style="fill:none;fill-opacity:1;stroke:#ff7f2a;stroke-width:0.075;stroke-linecap:round;stroke-linejoin:round;stroke-dasharray:0.075, 0.225;stroke-dashoffset:0;stroke-opacity:1;paint-order:normal"
       d="m 37.246096,67.269353 c -0.01035,-0.44903 0.300001,-1.5 0.649999,-2.1 0.349999,-0.599999 0.349999,-0.599999 0.349999,-0.599999"
       id="path484" />
    <path
       style="fill:none;fill-opacity:1;stroke:#ff7f2a;stroke-width:0.075;stroke-linecap:round;stroke-linejoin:round;stroke-dasharray:0.075, 0.225;stroke-dashoffset:0;stroke-opacity:1;paint-order:normal"
       d="m 36.243933,67.269353 c 0.01035,-0.44903 -0.300001,-1.5 -0.649999,-2.1 -0.349999,-0.599999 -0.349999,-0.599999 -0.349999,-0.599999"
       id="path484-0" />
    <path
       style="fill:none;fill-opacity:1;stroke:#ff7f2a;stroke-width:0.075;stroke-linecap:round;stroke-linejoin:round;stroke-dasharray:0.075, 0.225;stroke-dashoffset:0;stroke-opacity:1;paint-order:normal"
       d="m 36.823723,67.624887 c -0.02964,-1.547886 0.414799,-2.925934 1.099389,-4.272713"
       id="path484-6"
       sodipodi:nodetypes="cc" />
    <path
       style="fill:none;fill-opacity:1;stroke:#ff7f2a;stroke-width:0.075;stroke-linecap:round;stroke-linejoin:round;stroke-dasharray:0.075, 0.225;stroke-dashoffset:0;stroke-opacity:1;paint-order:normal"
       d="m 36.598328,67.897296 c 0.02964,-1.547886 -0.414799,-2.925934 -1.099389,-4.272713"
       id="path484-6-6"
       sodipodi:nodetypes="cc" />
    <path
       style="fill:none;fill-opacity:1;stroke:#ff7f2a;stroke-width:0.075;stroke-linecap:round;stroke-linejoin:round;stroke-dasharray:0.075, 0.225;stroke-dashoffset:0;stroke-opacity:1;paint-order:normal"
       d="m 36.719774,67.930911 c 0.02964,-1.547886 0.01515,-3.951194 -0.669441,-5.297973"
       id="path484-6-6-8"
       sodipodi:nodetypes="cc" />
  </g>
  <g
     inkscape:groupmode="layer"
     id="layer4"
     inkscape:label="bottom hbn"
     style="display:inline">
    <g
       id="g8"
       transform="translate(-0.49999913,1.0000005)">
      <g
         id="g5"
         style="display:inline"
         transform="translate(1.2500008,-3.7499992)">
        <path
           style="display:inline;fill:#000000;fill-opacity:0;stroke:#008080;stroke-width:0.05;stroke-linecap:round;stroke-dasharray:none;stroke-dashoffset:0;stroke-opacity:1;marker-end:url(#Dot)"
           d="m 80.443752,59.156251 v 2.25 0"
           id="path2" />
        <path
           style="display:inline;fill:#000000;fill-opacity:0;stroke:#008080;stroke-width:0.05;stroke-linecap:round;stroke-dasharray:none;stroke-dashoffset:0;stroke-opacity:1;marker-end:url(#Dot-9)"
           d="m 80.743752,58.356251 v 2.25 0"
           id="path2-2" />
        <path
           style="display:inline;fill:#000000;fill-opacity:0;stroke:#008080;stroke-width:0.05;stroke-linecap:round;stroke-dasharray:none;stroke-dashoffset:0;stroke-opacity:1;marker-end:url(#Dot-0)"
           d="m 81.293752,58.256251 v 2.25 0"
           id="path2-9" />
        <path
           style="display:inline;fill:#000000;fill-opacity:0;stroke:#008080;stroke-width:0.05;stroke-linecap:round;stroke-dasharray:none;stroke-dashoffset:0;stroke-opacity:1;marker-end:url(#Dot-3)"
           d="m 80.993748,58.881254 v 2.25 0"
           id="path2-86" />
        <path
           style="display:inline;fill:#000000;fill-opacity:0;stroke:#008080;stroke-width:0.05;stroke-linecap:round;stroke-dasharray:none;stroke-dashoffset:0;stroke-opacity:1;marker-end:url(#Dot-5)"
           d="m 81.543744,59.100847 v 2.25 0"
           id="path2-8" />
        <path
           id="rect6-1"
           style="display:inline;fill:#000080;stroke:#000080;stroke-width:0;stroke-linecap:round"
           d="m 73.25,60.75 7.000002,10e-7 v 0.8 h 1.5 v -0.8 l 6.999993,-10e-7 v 1 H 73.25 Z"
           sodipodi:nodetypes="ccccccccc" />
      </g>
    </g>
    <g
       id="g9"
       transform="translate(-0.49999913,0.57432211)">
      <path
         style="display:inline;fill:#808080;fill-opacity:0;stroke:none;stroke-width:0.0499999;stroke-linecap:round;stroke-dasharray:none;stroke-dashoffset:0;stroke-opacity:1"
         d="m 74.499961,62.142971 c 0.749414,-2e-6 1.499999,-1 1.499999,-1 0,0 12.500002,0 12.500002,0 0,0 0.500091,1 0.749998,1 0.24991,-2e-6 0.250942,-2e-6 0.250942,-2e-6"
         id="path5" />
      <path
         style="display:inline;fill:#008080;fill-opacity:1;stroke:#008080;stroke-width:0.25;stroke-linecap:butt;stroke-linejoin:round;stroke-dasharray:none;stroke-dashoffset:0;stroke-opacity:1"
         d="m 74.499961,62.142971 c 0.750001,0 1.500001,0 1.500001,-1 h 12.5 c 0,0 0,1 0.749998,1 h 0.750001"
         id="path6"
         sodipodi:nodetypes="cccsc" />
      <path
         id="rect6-1-6"
         style="display:inline;fill:#000080;stroke:#000080;stroke-width:0;stroke-linecap:round"
         d="m 74.499961,62.142971 7.000002,10e-7 v 0.999997 h 1.5 v -0.999997 l 6.999993,-10e-7 v 1 H 74.499961 Z"
         sodipodi:nodetypes="ccccccccc" />
      <rect
         style="display:inline;fill:#ff7f2a;fill-opacity:1;stroke:#000000;stroke-width:0;stroke-linecap:round;stroke-dasharray:none"
         id="rect7-4"
         width="12.500002"
         height="1"
         x="75.999962"
         y="61.142967" />
    </g>
    <g
       id="g10"
       transform="translate(-0.49999913,0.69038326)">
      <rect
         style="display:inline;fill:url(#linearGradient484-7);fill-opacity:1;stroke:none;stroke-width:0.03;stroke-linecap:butt;stroke-linejoin:round;stroke-dasharray:none"
         id="rect482-1-8"
         width="15.949282"
         height="4.1846199"
         x="74.27533"
         y="66.032707" />
      <rect
         style="display:inline;fill:url(#linearGradient3);fill-opacity:1;stroke:none;stroke-width:0.125671;stroke-linecap:butt;stroke-linejoin:round;stroke-dasharray:none"
         id="rect482-1-7-7"
         width="15.500002"
         height="4.1853352"
         x="74.508972"
         y="65.619202" />
      <path
         style="display:inline;fill:#808080;fill-opacity:0;stroke:none;stroke-width:0.0499999;stroke-linecap:round;stroke-dasharray:none;stroke-dashoffset:0;stroke-opacity:1"
         d="m 74.49997,67.999977 c 0.749414,-2e-6 1.499999,-1 1.499999,-1 0,0 12.500002,0 12.500002,0 0,0 0.500091,1 0.749998,1 0.24991,-2e-6 0.250942,-2e-6 0.250942,-2e-6"
         id="path5-0" />
      <path
         id="path1"
         style="color:#000000;fill:#008080;stroke-linejoin:round;-inkscape-stroke:none"
         d="m 75.999927,67.000003 c 0,1 -0.750166,0.999939 -1.500167,0.999939 h 6.749976 v -0.999939 z m 7.250204,0 v 0.999939 h 5.999634 c -0.749998,0 -0.749825,-0.999939 -0.749825,-0.999939 z" />
      <path
         style="color:#000000;fill:#008080;stroke-width:0.999996;stroke-linejoin:round;-inkscape-stroke:none"
         d="m 75.99997,66.749977 a 0.125013,0.12501301 0 0 0 -0.125,0.125 c 0,0.46875 -0.150964,0.653467 -0.394531,0.761719 -0.243567,0.108252 -0.605469,0.113281 -0.980469,0.113281 v 0.25 c 0.375,0 0.763098,0.005 1.082031,-0.136719 0.278637,-0.123838 0.426948,-0.446057 0.47461,-0.863281 h 12.341794 c 0.0038,0.08443 -0.0014,0.205781 0.07813,0.417969 0.05168,0.137826 0.129773,0.282454 0.25586,0.394531 0.126081,0.112077 0.302296,0.1875 0.517573,0.1875 h 0.75 v -0.25 h -0.75 c -0.159721,0 -0.264758,-0.04958 -0.349608,-0.125 -0.08485,-0.07542 -0.14739,-0.180795 -0.189455,-0.292969 -0.08413,-0.224347 -0.08594,-0.457031 -0.08594,-0.457031 a 0.125013,0.12501301 0 0 0 -0.125,-0.125 z"
         id="path3" />
      <path
         id="rect6-1-6-7"
         style="display:inline;fill:#000080;stroke:#000080;stroke-width:0;stroke-linecap:round"
         d="m 74.49997,67.999977 7.000002,10e-7 v 0.999997 h 1.5 v -0.999997 l 6.999993,-10e-7 v 1 H 74.49997 Z"
         sodipodi:nodetypes="ccccccccc" />
      <path
         id="rect7-4-5"
         style="display:inline;fill:#ff7f2a;stroke:#000000;stroke-width:0;stroke-linecap:round"
         d="m 75.999927,67.000003 v 0.999939 h 5.499923 l 0.500228,-0.999939 z m 6.500379,0 0.499711,0.999939 h 5.499923 v -0.999939 z" />
    </g>
    <g
       id="g11"
       transform="translate(-0.50000033,0.49999969)">
      <path
         style="display:inline;fill:#808080;fill-opacity:0;stroke:none;stroke-width:0.0499999;stroke-linecap:round;stroke-dasharray:none;stroke-dashoffset:0;stroke-opacity:1"
         d="m 74.500002,74.000002 c 0.749414,-2e-6 1.499999,-1 1.499999,-1 0,0 12.500001,0 12.500001,0 0,0 0.500091,1 0.749999,1 C 89.499911,74 89.500942,74 89.500942,74"
         id="path5-0-5" />
      <path
         id="rect6-1-6-7-4"
         style="display:inline;fill:#000080;stroke:#000080;stroke-width:0;stroke-linecap:round"
         d="m 74.500002,74.000002 7.000001,1e-6 V 75 h 1.5 v -0.999997 l 6.999994,-1e-6 v 1 H 74.500002 Z"
         sodipodi:nodetypes="ccccccccc" />
      <path
         id="rect7-4-5-2"
         style="display:inline;fill:#ff7f2a;stroke:#000000;stroke-width:0;stroke-linecap:round"
         d="m 75.999958,73.000028 v 0.999939 h 5.499923 l 0.500228,-0.999939 z m 6.500379,0 0.499711,0.999939 h 5.499923 v -0.999939 z" />
    </g>
  </g>
</svg>
